<?xml version='1.0' encoding='utf-8'?>
<svg xmlns="http://www.w3.org/2000/svg" viewBox="97.871100 10.095700 499.903200 485.187595">
  <path fill="#BB3101" d="M314.633240,367.439850 C312.810150,360.438110 310.812653,353.888672 309.435059,347.211365 C305.796570,329.574921 295.973877,314.680420 288.178772,298.923981 C273.853699,269.968384 259.180725,241.181259 244.288788,212.512970 C241.558487,207.256866 242.510468,203.345810 245.063065,198.687744 C260.029480,171.376495 274.811951,143.964478 289.672180,116.594986 C308.028381,82.786613 326.397675,48.985344 344.773041,15.187366 C345.548706,13.760662 346.442505,12.398149 347.829407,10.095740 C351.095154,16.416967 354.002075,21.956659 356.832245,27.535265 C383.504059,80.108047 410.166321,132.685669 436.821167,185.267029 C440.586060,192.693985 444.529663,200.045685 447.886993,207.654388 C448.873322,209.889633 449.044464,213.319946 448.035889,215.475891 C430.254761,253.485092 411.783691,291.178986 394.527588,329.421967 C389.111877,341.424286 386.583008,354.773376 383.147705,367.617004 C372.133636,408.795837 361.316620,450.027435 350.406830,491.234192 C350.041626,492.613525 349.495850,493.945038 348.016724,495.283295 C336.924927,452.800140 325.833130,410.317017 314.633240,367.439850 z" />
  <path fill="#BA3202" d="M500.526276,265.519226 C514.949524,249.863983 529.143494,234.476929 544.289917,218.057297 C544.488831,221.097244 544.674622,222.675735 544.683533,224.255203 C544.933655,268.742706 545.112305,313.230713 545.437744,357.717651 C545.521973,369.234497 541.063538,377.524048 530.913757,383.599274 C495.763641,404.638672 460.875580,426.116486 425.921265,447.482239 C415.266052,453.995270 404.723846,460.693054 394.117249,467.285950 C392.453064,468.320374 390.721313,469.246185 387.735779,470.959717 C388.410034,467.921783 388.693970,466.085266 389.226746,464.324066 C400.461700,427.185852 411.647705,390.032318 423.103271,352.962128 C424.227325,349.324707 426.550415,345.760468 429.147339,342.921967 C452.758820,317.114349 476.554871,291.475555 500.526276,265.519226 z" />
  <path fill="#03040A" d="M252.028793,462.844635 C255.252029,464.973724 258.475281,467.102844 262.233795,469.565247 C266.152283,471.994324 269.535461,474.090118 272.918671,476.185883 C280.811646,481.340332 288.704651,486.494781 297.561005,492.278381 C230.839661,492.278381 165.216705,492.278381 99.070023,492.278381 C98.990944,490.637878 98.848274,488.883942 98.830429,487.128754 C98.515518,456.150146 98.294899,425.170319 97.875198,394.193176 C97.699448,381.221954 103.230278,371.486389 113.796112,364.397797 C119.982994,360.247040 126.285553,356.268738 131.713089,352.746887 C133.469284,361.642456 134.487289,370.837646 137.209625,379.497009 C140.164581,388.896423 146.660706,395.951660 155.220398,401.343719 C183.920502,419.422821 212.411255,437.834259 241.495850,456.446686 C245.349289,458.798126 248.689041,460.821381 252.028793,462.844635 z" />
  <path fill="#010309" d="M561.977356,360.998199 C562.057373,359.345886 562.137390,357.693542 562.268433,354.988403 C574.269043,364.029602 590.137878,367.336029 595.491516,383.298126 C596.643127,386.731903 597.645508,390.421021 597.663452,393.997772 C597.828064,426.800903 597.760315,459.605194 597.760315,492.774292 C530.742798,492.774292 464.554657,492.774292 397.289032,492.774292 C402.631348,489.364014 407.130432,486.394287 411.722443,483.576019 C453.388916,458.004089 495.030182,432.390594 536.774414,406.946136 C549.523010,399.175476 558.015747,388.538635 561.366699,373.096832 C561.734924,368.587921 561.856140,364.793060 561.977356,360.998199 z" />
  <path fill="#A65525" d="M296.471802,462.473419 C274.255981,448.756348 252.018234,435.074585 229.830383,421.312408 C206.928604,407.107361 184.164948,392.676941 161.147293,378.663055 C154.083923,374.362671 150.179672,368.580505 149.757492,360.534515 C149.356720,352.896851 149.295822,345.236206 149.268234,337.585022 C149.126617,298.306763 149.041901,259.028320 148.949799,219.749924 C148.946762,218.453400 149.077835,217.156570 149.240356,214.082367 C159.855835,225.686081 169.538498,236.270142 179.225525,247.298111 C179.229889,247.742020 178.964798,248.027603 178.678741,247.861832 C169.194519,238.958908 159.996384,230.221771 150.990601,221.667343 C151.239334,221.164978 150.983490,221.440445 150.983398,221.716019 C150.965958,267.165253 150.873184,312.614899 151.071915,358.063263 C151.100479,364.592560 153.042648,370.966949 158.947250,374.977356 C164.842377,378.981323 170.897644,382.755096 176.953842,386.515198 C193.591125,396.844757 210.277023,407.096039 226.922195,417.412933 C242.299438,426.943909 257.694214,436.447968 272.992065,446.105194 C281.107941,451.228546 289.034271,456.652100 296.902527,462.073425 C296.758881,462.206696 296.471802,462.473419 296.471802,462.473419 z" />
  <path fill="#A65525" d="M179.363617,247.600342 C195.706848,264.855316 211.951355,282.219574 228.115082,299.658661 C241.684616,314.298889 255.176712,329.011108 268.648315,343.741516 C269.851105,345.056702 271.064880,346.613342 271.576111,348.272705 C283.620453,387.367249 295.571381,426.490631 307.520996,465.614319 C307.846069,466.678619 307.967041,467.805267 308.500824,470.515625 C303.878815,467.529602 300.374237,465.265503 296.670715,462.737427 C296.471802,462.473419 296.758881,462.206696 297.249725,462.139862 C300.243256,463.357147 302.745911,464.641235 306.015778,466.318970 C303.292206,457.438171 300.912506,449.699097 298.545349,441.956146 C290.346954,415.139374 282.224762,388.298920 273.899292,361.521637 C272.144318,355.876984 270.909760,349.385468 267.273560,345.132385 C253.374146,328.874969 238.651596,313.317230 224.123306,297.602783 C209.923889,282.244019 195.574936,267.023590 181.335312,251.701828 C180.358383,250.650650 179.746475,249.260239 178.964798,248.027603 C178.964798,248.027603 179.229889,247.742020 179.363617,247.600342 z" />
  <path fill="#BC3000" d="M178.678741,247.861832 C179.746475,249.260239 180.358383,250.650650 181.335312,251.701828 C195.574936,267.023590 209.923889,282.244019 224.123306,297.602783 C238.651596,313.317230 253.374146,328.874969 267.273560,345.132385 C270.909760,349.385468 272.144318,355.876984 273.899292,361.521637 C282.224762,388.298920 290.346954,415.139374 298.545349,441.956146 C300.912506,449.699097 303.292206,457.438171 306.015778,466.318970 C302.745911,464.641235 300.243256,463.357147 297.393372,462.006592 C289.034271,456.652100 281.107941,451.228546 272.992065,446.105194 C257.694214,436.447968 242.299438,426.943909 226.922195,417.412933 C210.277023,407.096039 193.591125,396.844757 176.953842,386.515198 C170.897644,382.755096 164.842377,378.981323 158.947250,374.977356 C153.042648,370.966949 151.100479,364.592560 151.071915,358.063263 C150.873184,312.614899 150.965958,267.165253 150.983398,221.716019 C150.983490,221.440445 151.239334,221.164978 150.990601,221.667343 C159.996384,230.221771 169.194519,238.958908 178.678741,247.861832 z" />
</svg>